<svg width="16" height="16" viewBox="0 0 16 16" fill="none" xmlns="http://www.w3.org/2000/svg">
<path d="M6.00001 0.666672V2.00001H10V0.666672H11.3333V2.00001H14C14.3682 2.00001 14.6667 2.29849 14.6667 2.66667V13.3333C14.6667 13.7015 14.3682 14 14 14H2.00001C1.63182 14 1.33334 13.7015 1.33334 13.3333V2.66667C1.33334 2.29849 1.63182 2.00001 2.00001 2.00001H4.66668V0.666672H6.00001ZM13.3333 7.33334H2.66668V12.6667H13.3333V7.33334ZM4.66668 3.33334H2.66668V6H13.3333V3.33334H11.3333V4.66667H10V3.33334H6.00001V4.66667H4.66668V3.33334Z" fill="#bbbbbb"/>
</svg>
